<?xml version="1.0" standalone="yes"?>
<svg width="474" height="140">
<path style="fill:#5e5e5e; stroke:none;" d="M0 0L0 137L474 137L474 0L0 0z"/>
<path style="fill:#afafaf; stroke:none;" d="M98 28L98 29L447 29L447 108L98 108L98 109L448 109L448 28L98 28z"/>
<path style="fill:#adadad; stroke:none;" d="M97 29L97 108L98 108L98 54L97 29z"/>
<path style="fill:#ffffff; stroke:none;" d="M98 29L98 108L447 108L447 29L98 29M86 69L82 68C73.867 79.514 50.4439 88.976 56.9236 66C58.7592 59.4913 62.5912 53.0258 68.0394 48.929C69.6114 47.7469 74.1519 44.4067 75.6427 47.4228C77.5056 51.1915 71.1618 58.3541 70 62C76.9143 60.8819 85.9226 43.5493 75.9414 41.358C52.1073 36.1256 40.5959 96.1628 69 84.6474C72.1668 83.3635 75.3034 81.5714 77.9961 79.4707C81.6562 76.6153 84.334 73.3002 86 69z"/>
<path style="fill:#d6d6d6; stroke:none;" d="M46 42L46 43L50 43L46 42z"/>
<path style="fill:#ffffff; stroke:none;" d="M27 69L26 69L32 45C22.199 48.0934 21.0058 73.1842 21 82C27.6765 80.9109 30.3045 71.8857 32 66L33 66L33 69L45 68C42.0895 70.6805 39.0116 73.144 36.0394 75.7539C34.1928 77.3753 32.4 79.0472 30.9429 81.0394C27.9091 85.1873 27.3811 93.9048 34.9969 90.8912C43.8177 87.4008 55.1192 69.2386 44 63C46.2669 59.5261 58.27 36.9434 44.0008 44.0285C35.5963 48.2017 29.8707 60.5693 27 69z"/>
<path style="fill:#d7d7d7; stroke:none;" d="M80 45L80 50L81 50L80 45z"/>
<path style="fill:#5e5e5e; stroke:none;" d="M34 64C41.025 60.7237 45.512 54.1765 48 47C41.354 50.1078 36.5582 57.2506 34 64z"/>
<path style="fill:#b9b9b9; stroke:none;" d="M25.3333 54.6667L25.6667 55.3333L25.3333 54.6667z"/>
<path style="fill:#8ea3ff; stroke:none;" d="M189 57L187 75L188 75L190 59L194 59L189 57M215 57L214 75L215 75L218 57L215 57z"/>
<path style="fill:#9fafff; stroke:none;" d="M240 76L241 76L241 59L245 58C237.536 55.554 240 71.6527 240 76M386 57L385 76L386 76C386 70.0963 384.461 63.4044 391 61L391 58L386 57z"/>
<path style="fill:#5271ff; stroke:none;" d="M113 58L113 59L116 59C116 64.383 117.995 73.7616 113 77L113 78C117.27 78 123.001 78.905 126.852 76.6821C131.809 73.8207 129.035 69.4839 125 68C136.272 58.6771 119.803 58 113 58M140 58L140 59L143 59C143 64.383 144.995 73.7616 140 77L140 78L150 78L150 77L147 77C147 71.617 145.005 62.2384 150 59L140 58M163 58L163 59C167.541 63.8098 166.447 71.924 165 78C173.188 73.8704 167.35 65.138 172 59L163 58z"/>
<path style="fill:#c0caff; stroke:none;" d="M170 59C171.808 66.5943 173.149 78.2279 163 79L163 80C178.012 79.8226 166.478 66.5248 175 61L170 59z"/>
<path style="fill:#5271ff; stroke:none;" d="M189 78C186.556 71.2932 186.184 64.6467 189 58C180.222 62.318 180.222 73.682 189 78M218 79C213.67 72.1157 212.762 65.641 216 58C205.644 61.7136 207.625 76.8875 218 79z"/>
<path style="fill:#5c79ff; stroke:none;" d="M218 58L223 66L224 66L224 58L218 58z"/>
<path style="fill:#5271ff; stroke:none;" d="M244 58C247.809 64.9249 247.809 71.0751 244 78C253.305 74.5316 253.422 61.2415 244 58M261 58L261 59L273 78C274.085 68.7633 271.694 58.1264 261 58M277 58C277.703 63.5655 280.46 73.46 275 77L275 78L284 78L284 77L281 77C281 71.617 279.005 62.2384 284 59L277 58M293 58L293 59L305 78C306.032 69.1267 303.045 58.1187 293 58M309 58C309.703 63.5655 312.46 73.4599 307 77L307 78L316 78L316 77L313 77C313 71.617 311.005 62.2384 316 59L309 58M326 58L326 59C329.841 63.0683 331.223 73.6137 326 77L326 78L341 78L341 74L333 77L333 69L338 71L337 66L333 67L333 59L343 65C342.688 55.4864 333.274 58 326 58M352 58L352 59L355 59C355 64.383 356.995 73.7616 352 77L352 78L362 78L362 77L359 77L359 68C364.198 70.8664 361.844 79.0448 369 78L363 68C374.832 59.8603 358.555 58 352 58M388 79C384.374 72.4088 384.269 65.2688 386 58C377.035 62.4226 378.397 76.2741 388 79M393 58L390 59L393 66L394 66L393 58z"/>
<path style="fill:#a7b6ff; stroke:none;" d="M394 58L394 66L396 66L394 58z"/>
<path style="fill:#5271ff; stroke:none;" d="M405 58L405 59C408.841 63.0683 410.223 73.6137 405 77L405 78L421 78L421 71L420 71C418.498 75.1772 416.361 76.5099 412 77L412 59L420 64L421 64L421 58L405 58z"/>
<path style="fill:#9a9a9a; stroke:none;" d="M28.3333 59.6667L28.6667 60.3333L28.3333 59.6667z"/>
<path style="fill:#abbaff; stroke:none;" d="M121 59L121 67L122 67L124 60L121 59z"/>
<path style="fill:#7d96ff; stroke:none;" d="M147 59L147 77L148 77L147 59z"/>
<path style="fill:#abbaff; stroke:none;" d="M148 59L148 77L149 77L151 60L148 59z"/>
<path style="fill:#ffffff; stroke:none;" d="M190 59L189 77C196.523 75.6938 195.735 62.1623 190 59z"/>
<path style="fill:#5271ff; stroke:none;" d="M193 59L193 77C200.589 73.0299 200.752 62.7365 193 59z"/>
<path style="fill:#bcc8ff; stroke:none;" d="M217 59L215 76L216 76C216 69.6227 215.781 65.1104 220 60L217 59z"/>
<path style="fill:#8ea3ff; stroke:none;" d="M224 59L223 67L224 59z"/>
<path style="fill:#5271ff; stroke:none;" d="M238 59C233.84 66.4263 233.787 75.7925 243 79L240 59L238 59z"/>
<path style="fill:#cdd5ff; stroke:none;" d="M241 59L241 77L242 77C242 70.5913 241.085 64.7762 246 60L241 59z"/>
<path style="fill:#afbeff; stroke:none;" d="M262.667 59.3333L263.333 59.6667L262.667 59.3333z"/>
<path style="fill:#91a4ff; stroke:none;" d="M276 59L272 79L275 78L276 64L277 64L277 77L278 77L276 59z"/>
<path style="fill:#778fff; stroke:none;" d="M281 59L281 77L282 77L281 59z"/>
<path style="fill:#b3c0ff; stroke:none;" d="M282 59L282 77L283 77L285 60L282 59z"/>
<path style="fill:#748eff; stroke:none;" d="M308 59L306 69L305 69L303 61L302 61L304 71L309 68L309 77L310 77L308 59z"/>
<path style="fill:#778fff; stroke:none;" d="M313 59L313 77L314 77L313 59z"/>
<path style="fill:#a3b4ff; stroke:none;" d="M314 59L314 77L315 77L317 60L314 59z"/>
<path style="fill:#9cadff; stroke:none;" d="M333 59L333 67L334 67L334 60L338 60L333 59z"/>
<path style="fill:#becaff; stroke:none;" d="M354 59L354 77L355 77L354 59z"/>
<path style="fill:#c9d2ff; stroke:none;" d="M359 59L362 67L363 60L359 59M412 59L413 67L414 67L414 61L418 61L412 59z"/>
<path style="fill:#899eff; stroke:none;" d="M421 59L420 65L421 59z"/>
<path style="fill:#d8dfff; stroke:none;" d="M122 60L122 67L123 67L125 61L122 60M149 60L149 77L150 77L152 61L149 60z"/>
<path style="fill:#cbd4ff; stroke:none;" d="M165 60L162 77L166 77L165 60z"/>
<path style="fill:#8ea3ff; stroke:none;" d="M170 60C170 67.2736 171.719 76.7276 162 77L164 71L163 71C161.704 75.3018 163.582 83.1797 169.258 77.3966C172.515 74.078 171.638 63.9035 170 60z"/>
<path style="fill:#c6cfff; stroke:none;" d="M225 60L224 68L225 60z"/>
<path style="fill:#7d94ff; stroke:none;" d="M264 60L265 76L266 76L264 60z"/>
<path style="fill:#dee3ff; stroke:none;" d="M283 60L283 77L284 77L286 61L283 60z"/>
<path style="fill:#7d94ff; stroke:none;" d="M296 60L296 75L297 75L296 60z"/>
<path style="fill:#dee3ff; stroke:none;" d="M315 60L315 77L316 77L318 61L315 60z"/>
<path style="fill:#93a6ff; stroke:none;" d="M328 60L328 77L329 77L328 60z"/>
<path style="fill:#d8dfff; stroke:none;" d="M334 60L336 67L335 61L339 61L334 60z"/>
<path style="fill:#d3dbff; stroke:none;" d="M343 60L343 67L344 67L343 60z"/>
<path style="fill:#d4dcff; stroke:none;" d="M396 60L393 66L393 67L397 68L396 60z"/>
<path style="fill:#8da2ff; stroke:none;" d="M412 60L412 77L413 77L415 68L412 60z"/>
<path style="fill:#ffffff; stroke:none;" d="M123 61L123 67L124 67L125 61L123 61z"/>
<path style="fill:#91a5ff; stroke:none;" d="M125 61L125 65L126 65L125 61z"/>
<path style="fill:#ffffff; stroke:none;" d="M243 61L242 77C248.023 75.001 246 66.2618 246 61L243 61z"/>
<path style="fill:#aebcff; stroke:none;" d="M246 61L246 75L247 75L246 61z"/>
<path style="fill:#ffffff; stroke:none;" d="M361 61L361 66L363 66L363 61L361 61z"/>
<path style="fill:#a4a4a4; stroke:none;" d="M71.6667 62.3333L72.3333 62.6667L71.6667 62.3333z"/>
<path style="fill:#8ea3ff; stroke:none;" d="M130 62L125 67L125 68C128.787 67.8337 131.245 65.959 130 62z"/>
<path style="fill:#bcc8ff; stroke:none;" d="M188 62L188 77L189 77L188 62z"/>
<path style="fill:#8aa0ff; stroke:none;" d="M368 62L363 67L363 68C366.627 67.422 369.257 65.9545 368 62z"/>
<path style="fill:#cdd5ff; stroke:none;" d="M386 62L386 77L387 77L386 62z"/>
<path style="fill:#d1d9ff; stroke:none;" d="M131 63L128 69C130.756 67.4868 132.001 66.1369 131 63z"/>
<path style="fill:#8ea3ff; stroke:none;" d="M251 63L246 79C251.76 75.841 255.001 68.8642 251 63z"/>
<path style="fill:#cbd4ff; stroke:none;" d="M369 63L365 69C368.416 68.3717 370.106 66.5135 369 63z"/>
<path style="fill:#9a9a9a; stroke:none;" d="M33 64L33 66L35 64L33 64z"/>
<path style="fill:#cccccc; stroke:none;" d="M37 66L40 64L37 66z"/>
<path style="fill:#8fa3ff; stroke:none;" d="M199 64L195 77C199.761 74.4374 201.061 68.9232 199 64z"/>
<path style="fill:#d8dfff; stroke:none;" d="M276 64L274 77C278.511 76.0335 277.912 67.318 276 64z"/>
<path style="fill:#b6c3ff; stroke:none;" d="M297 64L297 76L299 76L297 64z"/>
<path style="fill:#94a7ff; stroke:none;" d="M336 64L338 73L339 73L336 64z"/>
<path style="fill:#5271ff; stroke:none;" d="M416 64L416 72L417 72L416 64z"/>
<path style="fill:#859bff; stroke:none;" d="M417 64L417 72L418 72L417 64z"/>
<path style="fill:#afafaf; stroke:none;" d="M22.3333 65.6667L22.6667 66.3333L22.3333 65.6667z"/>
<path style="fill:#cbd4ff; stroke:none;" d="M200 66C199.662 73.2802 196.616 76.3719 190 79L190 80C197.864 79.8098 203.366 74.0404 200 66z"/>
<path style="fill:#dee4ff; stroke:none;" d="M266 66L266 77L268 77L266 66z"/>
<path style="fill:#d1d9ff; stroke:none;" d="M339 66L339 75L339 66z"/>
<path style="fill:#c1cdff; stroke:none;" d="M418 66L417 73L418 66z"/>
<path style="fill:#c3c3c3; stroke:none;" d="M26 67L26 69L28 67L26 67z"/>
<path style="fill:#9a9a9a; stroke:none;" d="M56 67L56 70L57 70L56 67z"/>
<path style="fill:#ced7ff; stroke:none;" d="M253 67C251.99 73.7084 249.288 78.6603 242 77L242 80C249.356 81.3487 255.852 74.3258 253 67z"/>
<path style="fill:#afafaf; stroke:none;" d="M49 68L49 71L50 71L49 68z"/>
<path style="fill:#7d96ff; stroke:none;" d="M120 68L120 77L121 77L120 68z"/>
<path style="fill:#abbaff; stroke:none;" d="M121 68L121 77L122 77L125 69L121 68z"/>
<path style="fill:#c7d1ff; stroke:none;" d="M307 68L306 77L309 68L307 68z"/>
<path style="fill:#8ea3ff; stroke:none;" d="M359 68L359 77L360 77L362 69L359 68z"/>
<path style="fill:#d8dfff; stroke:none;" d="M122 69L122 77L123 77L125 70L122 69z"/>
<path style="fill:#9cadff; stroke:none;" d="M333 69L333 77L334 77L336 70L333 69z"/>
<path style="fill:#c9d2ff; stroke:none;" d="M360 69L360 77L361 77L363 70L360 69M413 69L413 77L414 77L415 69L413 69z"/>
<path style="fill:#9a9a9a; stroke:none;" d="M21 70L21 73L22 73L21 70z"/>
<path style="fill:#ffffff; stroke:none;" d="M123 70L123 77L126 70L123 70z"/>
<path style="fill:#becaff; stroke:none;" d="M223 70L221 78L217 77L216 80C222.568 81.4058 231.109 74.5191 223 70z"/>
<path style="fill:#ffffff; stroke:none;" d="M334 70L334 77L339 76L334 70z"/>
<path style="fill:#8ea3ff; stroke:none;" d="M341 70L341 78L330 78L330 79L343 79L341 70z"/>
<path style="fill:#c9d3ff; stroke:none;" d="M394 70L387 77L387 80C393.824 81.6438 399.384 75.7767 394 70z"/>
<path style="fill:#8ea2ff; stroke:none;" d="M130 71L125 77L125 78C129.295 77.6605 132.889 75.3398 130 71z"/>
<path style="fill:#5271ff; stroke:none;" d="M160 77L163 71C159.578 72.1357 159.216 73.57 160 77z"/>
<path style="fill:#5876ff; stroke:none;" d="M223 71L223 74L224 74L223 71z"/>
<path style="fill:#849bff; stroke:none;" d="M367 71L367 77L370 77L367 71z"/>
<path style="fill:#8ea3ff; stroke:none;" d="M421 71L421 78L406 78L406 79L422 79L421 71z"/>
<path style="fill:#868686; stroke:none;" d="M51 72L51 77L52 77L51 72z"/>
<path style="fill:#d7d7d7; stroke:none;" d="M55 72L55 76L56 76L55 72z"/>
<path style="fill:#97a9ff; stroke:none;" d="M306 72L304 79L307 78L306 72z"/>
<path style="fill:#cbd4ff; stroke:none;" d="M343 72L343 79L327 78L327 79L344 80L343 72M132 73C128.027 79.3547 121.729 78 115 78L115 79C119.834 80.4287 134.782 81.7854 132 73z"/>
<path style="fill:#ffffff; stroke:none;" d="M308 73L308 77L309 77L308 73z"/>
<path style="fill:#d6ddff; stroke:none;" d="M370 73L366 79L366 80C371.456 80.9097 374.134 77.1842 370 73z"/>
<path style="fill:#cbd4ff; stroke:none;" d="M422 73L422 79L407 79L407 80L423 80L422 73z"/>
<path style="fill:#5271ff; stroke:none;" d="M264 75L261 77L261 78L268 78L268 77L264 75M293 77L293 78L300 78L293 77z"/>
<path style="fill:#8298ff; stroke:none;" d="M219 78L222 76L219 78z"/>
<path style="fill:#d6d6d6; stroke:none;" d="M23 77L23 80L24 80L25 77L23 77z"/>
<path style="fill:#899eff; stroke:none;" d="M188 78L188 79L194 78L188 78z"/>
<path style="fill:#5e5e5e; stroke:none;" d="M40 78L33 87C36.5836 85.1003 40.3605 82.3869 40 78z"/>
<path style="fill:#cbd4ff; stroke:none;" d="M142 78L142 79L152 80L142 78z"/>
<path style="fill:#8ea3ff; stroke:none;" d="M145 78L145 79L150 79L145 78M262 78L262 79L269 79L262 78z"/>
<path style="fill:#cbd4ff; stroke:none;" d="M269 78L264 79L264 80L269 78M273 79L273 80L286 80L273 79z"/>
<path style="fill:#8ea3ff; stroke:none;" d="M279 78L279 79L284 79L279 78M295 78L295 79L301 79L295 78z"/>
<path style="fill:#cbd4ff; stroke:none;" d="M301 78L296 79L296 80L301 78M308 78L308 79L318 80L308 78z"/>
<path style="fill:#8ea3ff; stroke:none;" d="M311 78L311 79L316 79L311 78M353 78L353 79L361 79L353 78z"/>
<path style="fill:#cbd4ff; stroke:none;" d="M354 79L354 80L364 80L354 79z"/>
<path style="fill:#9a9a9a; stroke:none;" d="M22.6667 82.3333L23.3333 82.6667L22.6667 82.3333M32.3333 86.6667L32.6667 87.3333L32.3333 86.6667z"/>
<path style="fill:#afafaf; stroke:none;" d="M61.6667 86.3333L62.3333 86.6667L61.6667 86.3333z"/>
<path style="fill:#aeaeae; stroke:none;" d="M0 137L0 138L474 138C463.02 133.393 443.944 137 432 137L336 137L0 137z"/>
<path style="fill:#ffffff; stroke:none;" d="M0 138L0 140L474 140L474 138L0 138z"/>
</svg>
