<?xml version="1.0" standalone="no"?>
<!DOCTYPE svg PUBLIC "-//W3C//DTD SVG 20010904//EN"
 "http://www.w3.org/TR/2001/REC-SVG-20010904/DTD/svg10.dtd">
<svg version="1.0" xmlns="http://www.w3.org/2000/svg"
 width="1280.000000pt" height="896.000000pt" viewBox="0 0 1280.000000 896.000000"
 preserveAspectRatio="xMidYMid meet">
<metadata>
Created by potrace 1.16, written by Peter Selinger 2001-2019
</metadata>
<g transform="translate(0.000000,896.000000) scale(0.100000,-0.100000)"
fill="#000000" stroke="none">
<path d="M5823 7153 c582 -2 1532 -2 2110 0 579 1 103 2 -1058 2 -1160 0
-1634 -1 -1052 -2z"/>
<path d="M4663 7105 c-20 -20 -31 -39 -27 -46 4 -8 3 -9 -4 -5 -28 17 -32 -57
-32 -645 l0 -599 -922 0 -923 -1 -26 -22 c-15 -12 -32 -32 -38 -44 -8 -16 -11
-321 -11 -1107 l0 -1086 -298 0 -299 0 -22 -24 c-18 -19 -22 -33 -19 -72 2
-35 7 -49 18 -49 8 -1 14 -5 13 -11 -1 -5 6 -10 15 -11 9 0 70 -21 134 -47
l117 -46 1643 0 c904 0 2079 3 2611 7 l969 6 -4 64 c-2 36 1 65 7 66 6 2 -6
14 -25 25 -26 16 -51 22 -97 22 l-61 0 -11 38 -10 37 4 -40 c3 -28 2 -34 -4
-20 -11 27 -45 265 -38 271 3 3 8 -24 12 -61 4 -36 10 -64 13 -61 2 3 -2 49
-9 103 -11 78 -15 91 -19 63 l-6 -35 -5 38 -5 37 362 0 362 0 4 -222 c3 -191
6 -228 21 -256 10 -18 22 -30 26 -27 5 2 15 -2 22 -11 37 -44 28 -44 789 -44
514 0 728 3 743 11 12 6 35 23 52 38 l30 26 -25 -28 c-52 -60 -16 -57 -803
-57 l-724 0 -39 26 c-21 15 -32 19 -24 10 38 -47 25 -47 791 -46 506 0 727 4
742 11 27 14 97 80 97 92 0 4 -4 6 -9 3 -5 -4 -7 4 -3 16 4 16 7 18 10 8 5
-18 93 -110 104 -110 4 0 -13 19 -37 41 -25 23 -45 45 -45 50 0 5 16 -8 35
-29 51 -58 78 -62 375 -62 297 0 324 4 375 62 19 21 35 34 35 29 0 -5 -20 -27
-45 -50 -24 -22 -41 -41 -37 -41 18 0 93 89 102 120 6 21 10 272 10 641 0 599
-4 680 -33 662 -6 -4 -8 0 -4 10 7 19 -60 83 -100 94 -16 5 -156 8 -313 8
-308 0 -318 -2 -365 -56 -17 -19 -14 -19 13 4 19 15 46 30 60 35 15 4 155 7
312 7 308 0 319 -2 365 -56 l20 -24 -25 21 c-50 43 -58 44 -370 44 -304 0
-321 -2 -363 -38 -47 -41 -47 -40 -47 274 0 237 -3 302 -15 330 -8 20 -19 33
-23 30 -5 -3 -20 6 -32 19 -13 14 -20 25 -16 25 5 0 3 7 -4 15 -7 8 -20 15
-29 14 -11 0 -9 -3 7 -9 12 -5 22 -12 22 -14 0 -3 -12 0 -27 6 -18 8 -118 15
-268 19 l-240 6 242 -1 c133 -1 235 2 225 6 -9 4 -113 7 -229 7 l-213 1 -2
763 -3 762 -5 -765 -5 -765 -3 771 -2 771 -23 34 c-12 19 -42 44 -67 57 l-45
22 -2148 0 -2149 0 -35 -35z m4287 -905 l0 -739 -394 -3 c-381 -3 -396 -4
-422 -24 -15 -11 -37 -33 -48 -48 -20 -26 -21 -41 -24 -427 l-3 -399 -1064 0
-1065 0 0 569 c0 390 -3 578 -11 600 -22 62 -15 61 -589 61 l-520 0 0 575 0
575 2070 0 2070 0 0 -740z m-5260 -407 l-934 -3 -28 -27 c-15 -15 -28 -24 -28
-20 0 3 12 18 27 32 l28 25 935 -2 935 -3 -935 -2z m2174 -34 c13 -7 30 -23
35 -38 8 -18 10 -352 9 -1111 l-3 -1085 -1587 -3 -1588 -2 0 1104 0 1105 26
20 27 21 1528 0 c1114 0 1535 -3 1553 -11z m-3167 -1666 c-1 -302 -2 -55 -2
547 0 602 1 849 2 548 2 -302 2 -794 0 -1095z m6932 1312 c64 -33 62 16 59
-1045 l-3 -962 -37 -34 -38 -34 -721 0 -721 0 -34 34 -34 34 0 977 0 977 34
34 34 34 716 0 c608 0 721 -2 745 -15z m106 -68 c8 -48 11 -1937 3 -1924 -4 7
-8 440 -8 964 0 608 -4 961 -10 978 -6 16 -6 24 0 20 5 -3 12 -20 15 -38z
m748 -580 c16 -10 37 -32 48 -50 19 -31 19 -51 17 -669 l-3 -636 -25 -27 c-50
-54 -57 -55 -360 -55 -303 0 -310 1 -360 55 l-25 27 -3 626 c-1 345 0 637 3
649 8 34 54 82 88 92 18 6 158 9 312 8 252 -2 284 -4 308 -20z m-2423 -632 l0
-225 -1065 0 -1065 0 0 225 0 225 1065 0 1065 0 0 -225z m-785 -277 c15 -87
55 -362 55 -379 0 -18 -14 -19 -380 -19 l-380 0 0 23 c0 36 -19 47 -82 47 -43
0 -58 4 -58 14 0 8 11 87 25 176 14 89 25 164 25 166 0 2 178 4 395 4 l394 0
6 -32z m-848 -12 c-3 -8 -8 -43 -11 -78 l-5 -63 12 72 c7 40 17 76 21 80 5 4
6 -1 3 -12 -3 -11 -13 -72 -22 -135 -19 -135 -27 -161 -20 -70 4 62 4 63 -6
20 -5 -25 -8 -57 -6 -72 l3 -27 -223 -1 -223 -1 0 151 0 150 241 0 c205 0 240
-2 236 -14z m-2424 -356 c5 -19 14 -20 317 -20 304 0 312 1 317 20 5 20 12 20
957 18 l951 -3 3 -31 c2 -17 -3 -36 -11 -42 -11 -9 -552 -11 -2228 -10 l-2214
3 -3 43 -3 42 954 0 c946 0 955 0 960 -20z m3522 -66 c10 -11 15 -29 13 -53
l-3 -36 -595 -3 c-327 -1 -590 1 -585 6 6 4 50 21 99 37 49 17 94 38 100 48
10 16 44 17 483 17 422 0 473 -2 488 -16z"/>
<path d="M2840 4638 l0 -1013 1475 0 1475 0 0 1013 0 1012 -1475 0 -1475 0 0
-1012z m2930 0 l0 -993 -1455 3 -1455 2 0 990 0 990 1455 0 1455 0 0 -992z"/>
<path d="M8182 5238 c-9 -9 -12 -211 -12 -859 0 -757 2 -849 16 -863 14 -14
91 -16 703 -16 534 0 691 3 704 13 16 11 17 72 15 872 l-3 860 -705 3 c-541 2
-709 -1 -718 -10z m1406 -860 l-3 -853 -695 0 -695 0 -3 840 c-1 462 0 846 3
853 3 9 153 12 700 12 l695 0 -2 -852z"/>
<path d="M9805 4578 c-3 -7 -4 -251 -3 -543 l3 -530 344 -3 c245 -2 348 1 357
9 12 9 14 103 14 529 0 285 -3 525 -6 534 -5 14 -46 16 -355 16 -271 0 -351
-3 -354 -12z m695 -533 l0 -535 -342 2 -343 3 -3 520 c-1 286 0 526 3 533 3 9
82 12 345 12 l340 0 0 -535z"/>
<path d="M6828 4204 c-34 -18 -48 -43 -48 -84 0 -42 15 -67 52 -86 64 -33 138
11 138 83 0 45 -14 69 -50 88 -36 19 -57 18 -92 -1z"/>
<path d="M2318 3278 c21 -8 3504 -8 4512 1 399 3 -457 6 -1902 6 -1445 0
-2619 -3 -2610 -7z"/>
</g>
</svg>
