<?xml version="1.0" standalone="no"?>
<!DOCTYPE svg PUBLIC "-//W3C//DTD SVG 20010904//EN"
 "http://www.w3.org/TR/2001/REC-SVG-20010904/DTD/svg10.dtd">
<svg version="1.0" xmlns="http://www.w3.org/2000/svg"
 width="474.000000pt" height="140.000000pt" viewBox="0 0 474.000000 140.000000"
 preserveAspectRatio="xMidYMid meet">

<g transform="translate(0.000000,140.000000) scale(0.100000,-0.100000)"
fill="#000000" stroke="none">
<path d="M0 715 l0 -685 2370 0 2370 0 0 685 0 685 -2370 0 -2370 0 0 -685z
m4480 0 l0 -405 -1755 0 -1755 0 0 405 0 405 1755 0 1755 0 0 -405z m-3684
250 c11 -17 14 -35 10 -59 -7 -38 -63 -127 -83 -134 -26 -8 -23 27 6 74 17 26
31 61 31 77 0 25 -3 28 -22 22 -68 -20 -140 -110 -164 -204 -25 -99 -6 -161
48 -161 35 0 107 42 155 91 26 27 56 49 66 49 32 0 17 -37 -36 -87 -83 -79
-163 -113 -221 -93 -124 41 -73 315 78 418 61 40 108 43 132 7z m-277 -7 c13
-37 -11 -101 -56 -149 l-24 -26 30 -31 c17 -17 31 -37 31 -45 0 -28 -69 -152
-103 -185 -44 -43 -100 -54 -117 -23 -18 34 15 86 98 156 78 65 82 90 11 62
-30 -12 -46 -14 -55 -6 -9 8 -22 -7 -51 -62 -21 -40 -44 -75 -50 -77 -40 -12
-30 113 21 280 28 91 46 118 64 95 8 -9 3 -38 -18 -107 -17 -51 -28 -95 -27
-97 2 -1 14 16 27 40 43 78 103 157 134 177 42 27 75 26 85 -2z"/>
<path d="M1169 729 c2 -69 0 -94 -10 -100 -9 -6 0 -8 26 -8 22 0 34 3 28 6 -8
3 -13 23 -13 49 0 28 4 44 13 44 9 0 8 3 -2 9 -9 6 -12 22 -9 50 3 36 1 41
-17 41 -19 0 -20 -5 -16 -91z"/>
<path d="M1439 729 c2 -69 0 -94 -10 -100 -9 -6 0 -9 26 -9 25 0 35 3 27 9
-10 6 -13 32 -10 100 3 85 2 91 -17 91 -19 0 -20 -5 -16 -91z"/>
<path d="M1655 721 c0 -88 2 -98 16 -90 24 12 29 32 29 115 0 70 -1 74 -22 74
-22 0 -23 -3 -23 -99z"/>
<path d="M1856 789 c-41 -48 -28 -145 21 -163 14 -6 16 -5 6 5 -17 17 -17 161
-1 177 7 7 9 12 6 12 -3 0 -18 -14 -32 -31z"/>
<path d="M1928 809 c7 -8 12 -42 12 -89 0 -47 -5 -81 -12 -89 -11 -10 -10 -11
4 -6 27 11 48 51 48 95 0 44 -21 84 -48 95 -14 5 -15 4 -4 -6z"/>
<path d="M2125 795 c-33 -32 -35 -110 -4 -149 11 -14 26 -26 32 -26 8 0 7 4
-1 12 -7 7 -12 42 -12 88 0 46 5 81 12 88 7 7 9 12 5 12 -5 0 -19 -11 -32 -25z"/>
<path d="M2646 803 c3 -10 10 -27 15 -38 5 -11 20 -49 33 -85 24 -63 26 -64
40 -16 3 7 1 17 -3 22 -4 5 -18 37 -31 72 -16 45 -27 62 -41 62 -13 0 -17 -5
-13 -17z"/>
<path d="M2767 800 c-3 -12 -1 -18 5 -14 6 4 8 -25 6 -80 l-3 -86 30 0 c20 0
26 3 17 9 -10 6 -13 32 -10 100 3 87 2 91 -18 91 -13 0 -24 -8 -27 -20z"/>
<path d="M2966 803 c3 -10 10 -27 15 -38 5 -11 19 -49 32 -84 13 -35 26 -60
29 -55 11 18 18 64 11 64 -5 0 -19 29 -31 65 -18 49 -29 65 -43 65 -13 0 -17
-5 -13 -17z"/>
<path d="M3087 800 c-3 -12 -1 -18 5 -14 6 4 8 -25 6 -80 l-3 -86 30 0 c20 0
26 3 17 9 -10 6 -13 32 -10 100 3 87 2 91 -18 91 -13 0 -24 -8 -27 -20z"/>
<path d="M3285 720 l0 -100 30 0 c19 0 25 3 17 8 -9 6 -12 34 -10 100 3 86 2
92 -17 92 -19 0 -20 -7 -20 -100z"/>
<path d="M3361 817 c2 -1 14 -11 27 -21 22 -19 22 -19 22 2 0 17 -6 22 -27 22
-14 0 -24 -1 -22 -3z"/>
<path d="M3545 720 l0 -100 35 0 c21 0 30 4 23 8 -8 5 -13 34 -13 77 -2 113
-2 115 -25 115 -19 0 -20 -6 -20 -100z"/>
<path d="M3831 798 c-41 -43 -35 -145 11 -169 18 -9 18 -8 9 10 -14 25 -14
136 -1 162 14 25 6 24 -19 -3z"/>
<path d="M3906 799 c12 -13 24 -31 27 -39 3 -8 6 0 6 19 1 19 -2 31 -5 28 -4
-3 -16 -1 -28 5 l-21 11 21 -24z"/>
<path d="M4075 720 l0 -100 35 0 c23 0 30 3 22 9 -10 6 -13 32 -10 100 l3 91
-25 0 c-25 0 -25 0 -25 -100z"/>
<path d="M4173 809 c10 -6 22 -20 27 -32 8 -19 9 -18 9 11 1 29 -2 32 -26 32
-25 -1 -26 -2 -10 -11z"/>
<path d="M1256 782 c4 -19 0 -34 -10 -44 -14 -15 -14 -17 0 -22 12 -5 15 -16
12 -46 -4 -41 7 -51 30 -28 19 19 14 46 -13 64 -25 17 -25 17 -5 31 22 16 26
43 8 61 -20 20 -28 14 -22 -16z"/>
<path d="M2217 783 c18 -27 28 -24 19 5 -4 10 -13 19 -20 19 -12 0 -12 -4 1
-24z"/>
<path d="M2370 778 c-11 -18 -20 -43 -20 -56 0 -28 22 -73 46 -93 16 -13 16
-12 5 10 -8 15 -12 50 -9 97 2 41 2 74 1 74 -2 0 -12 -15 -23 -32z"/>
<path d="M2465 720 l0 -89 20 20 c15 14 20 33 20 69 0 36 -5 55 -20 69 l-20
20 0 -89z"/>
<path d="M3635 770 c0 -22 0 -40 1 -40 19 0 34 18 34 40 0 22 -15 40 -34 40
-1 0 -1 -18 -1 -40z"/>
<path d="M4160 746 c0 -8 -4 -16 -9 -18 -5 -1 -3 -12 5 -22 13 -18 14 -17 14
17 0 20 -2 37 -5 37 -3 0 -5 -6 -5 -14z"/>
<path d="M3354 729 c-3 -6 -1 -16 5 -22 8 -8 11 -5 11 11 0 24 -5 28 -16 11z"/>
<path d="M3630 689 c0 -42 17 -69 43 -68 12 0 16 3 10 6 -7 2 -13 17 -13 33 0
24 -21 60 -36 60 -2 0 -4 -14 -4 -31z"/>
<path d="M1597 678 c-2 -7 -2 -21 1 -31 4 -17 5 -17 18 0 18 24 18 43 0 43 -8
0 -16 -6 -19 -12z"/>
<path d="M4200 666 c0 -8 -10 -22 -22 -30 l-22 -16 27 0 c23 0 27 4 27 30 0
17 -2 30 -5 30 -3 0 -5 -6 -5 -14z"/>
<path d="M3400 650 c0 -6 -10 -15 -22 -20 -22 -8 -22 -9 5 -9 21 -1 27 4 27
19 0 11 -2 20 -5 20 -3 0 -5 -5 -5 -10z"/>
<path d="M2632 634 c-11 -12 -8 -14 19 -14 18 0 30 1 28 3 -2 1 -11 8 -19 14
-11 8 -18 8 -28 -3z"/>
<path d="M2952 634 c-11 -12 -8 -14 19 -14 18 0 30 1 28 3 -2 1 -11 8 -19 14
-11 8 -18 8 -28 -3z"/>
<path d="M425 887 c-46 -55 -89 -127 -76 -127 14 0 90 90 112 133 26 50 8 47
-36 -6z"/>
<path d="M372 587 c-45 -46 -59 -76 -16 -36 26 24 69 79 62 79 -2 0 -23 -19
-46 -43z"/>
</g>
</svg>
